<svg width="8639" height="1113" viewBox="0 0 8639 1113" fill="none" xmlns="http://www.w3.org/2000/svg">
<path d="M0 0H745.736V366.21H0V0Z" fill="#0065F8"/>
<path d="M1111.94 366.211V1098.63H745.733L745.733 366.211L1111.94 366.211Z" fill="#0065F8"/>
<path d="M746.545 366.348C649.467 364.475 552.985 381.923 462.712 417.678C372.439 453.433 290.175 506.78 220.707 574.617C151.239 642.454 95.953 723.427 58.064 812.825C20.1751 902.224 0.439776 998.264 0.00607356 1095.36L365.477 1096.99C365.694 1048.35 375.582 1000.23 394.564 955.441C413.547 910.652 441.245 870.084 476.049 836.098C510.853 802.111 552.067 775.384 597.294 757.471C642.521 739.558 697.909 732.705 746.546 733.643L746.545 366.348Z" fill="#0065F8"/>
<path d="M926.117 0H1112.55V186.434H926.117V0Z" fill="#0065F8"/>
<path d="M2308.46 1097.2L2222.51 821.556H1720.12L1634.17 1097.2H1475.6L1840.16 0.544978H2114.32L2475.93 1097.2H2308.46ZM1758.65 697.071H2183.98L1973.54 15.3647H1970.57L1758.65 697.071Z" fill="white"/>
<path d="M2600.8 205.057V37.5942H2749V205.057H2600.8ZM2600.8 1097.2V359.182H2749V1097.2H2600.8Z" fill="white"/>
<path d="M3457.52 359.182H3617.57L3396.76 1097.2H3113.71L2892.89 359.182H3051.46L3253.01 1086.83H3255.97L3457.52 359.182Z" fill="white"/>
<path d="M4075.98 1112.02C3844.79 1112.02 3706.97 969.753 3706.97 728.192C3706.97 486.631 3844.79 344.362 4075.98 344.362C4308.65 344.362 4444.99 486.631 4444.99 728.192C4444.99 969.753 4308.65 1112.02 4075.98 1112.02ZM4075.98 991.983C4213.8 991.983 4293.83 894.173 4293.83 728.192C4293.83 562.212 4213.8 464.402 4075.98 464.402C3938.16 464.402 3858.13 562.212 3858.13 728.192C3858.13 894.173 3938.16 991.983 4075.98 991.983Z" fill="white"/>
<path d="M5006.49 344.362C5047.99 344.362 5090.97 353.254 5120.61 366.592L5076.15 504.415C5047.99 488.113 5007.98 477.739 4969.44 477.739C4842 477.739 4767.9 577.031 4767.9 745.976V1097.2H4619.7V359.182H4767.9V648.166H4770.86C4770.86 456.992 4858.3 344.362 5006.49 344.362Z" fill="white"/>
<path d="M5749.54 359.182H5897.74V1097.2H5749.54V851.196H5746.58C5746.58 1014.21 5647.28 1112.02 5478.34 1112.02C5285.68 1112.02 5171.57 969.753 5171.57 728.192C5171.57 486.631 5285.68 344.362 5478.34 344.362C5647.28 344.362 5746.58 442.172 5746.58 605.189H5749.54V359.182ZM5542.06 991.983C5679.89 991.983 5759.91 888.245 5759.91 728.192C5759.91 568.14 5679.89 464.402 5542.06 464.402C5404.24 464.402 5324.21 562.212 5324.21 728.192C5324.21 894.173 5404.24 991.983 5542.06 991.983Z" fill="white"/>
<path d="M6556.21 457.461C6682.04 457.461 6751.37 524.225 6751.37 641.061C6751.37 660.32 6750.08 679.579 6746.23 701.406L6675.62 1099.42H6620.41L6691.02 701.406C6693.59 684.715 6694.87 668.024 6694.87 653.901C6694.87 560.174 6637.1 506.25 6534.38 506.25C6400.86 506.25 6304.56 597.408 6277.6 752.762L6217.26 1099.42H6162.05L6272.46 470.3H6327.67L6290.44 682.147H6293.01C6318.69 540.916 6416.26 457.461 6556.21 457.461Z" fill="white"/>
<path d="M7244.88 457.461C7391.25 457.461 7474.7 543.484 7474.7 692.418C7474.7 720.664 7470.85 752.762 7464.43 786.144L7461.87 798.983H6961.14C6959.85 815.674 6958.57 833.649 6958.57 851.624C6958.57 983.868 7022.76 1063.47 7138.32 1063.47C7259.01 1063.47 7352.73 995.423 7391.25 881.154H7447.74C7404.09 1026.24 7285.97 1112.26 7129.33 1112.26C6982.96 1112.26 6900.79 1018.53 6900.79 860.611C6900.79 620.519 7035.6 457.461 7244.88 457.461ZM7235.9 506.25C7097.23 506.25 6998.37 602.544 6968.84 750.194H7413.08C7414.36 734.787 7415.64 719.38 7415.64 705.257C7415.64 578.149 7351.45 506.25 7235.9 506.25Z" fill="white"/>
<path d="M8172.25 470.3L7900.06 770.737L8083.66 1099.42H8014.33L7841 777.157H7838.43L7552.12 1099.42H7482.79L7781.94 770.737L7615.03 470.3H7683.08L7841 766.885H7843.57L8104.21 470.3H8172.25Z" fill="white"/>
<path d="M8398.13 519.089L8324.95 936.363C8323.67 946.634 8322.38 956.905 8322.38 967.177C8322.38 1028.8 8360.9 1063.47 8430.23 1063.47C8462.33 1063.47 8499.56 1055.77 8529.09 1042.93L8520.1 1089.15C8488.01 1103.27 8445.64 1112.26 8404.55 1112.26C8315.96 1112.26 8265.89 1063.47 8265.89 980.016C8265.89 964.609 8268.46 949.202 8271.02 932.511L8344.21 519.089H8233.79L8241.49 470.3H8358.33L8398.13 245.614H8453.34L8444.35 299.539C8434.08 362.451 8401.98 424.079 8364.75 467.732L8363.47 470.3H8638.22L8630.52 519.089H8398.13Z" fill="white"/>
</svg>

